<?xml version="1.0" encoding="UTF-8"?>
<svg version="1.1" viewBox="0 0 16 16" xmlns="http://www.w3.org/2000/svg">
<g fill="none" fill-rule="evenodd">
<g transform="translate(-480 -192)" fill="#000">
<path d="m486 197.8v7.7981l-8.6e-5 -5.2e-5c0.007435 0.71314-0.46697 1.5173-1.4495 2.0226-1.3645 0.70177-2.7995 0.35928-3.3247-0.45105-0.52521-0.81033-0.14073-2.0885 1.2238-2.7903 0.91769-0.47195 1.8672-0.47161 2.5504-0.17429v-6.2051-4l10-2v1 3 8.6005l-6.3e-5 2.5e-5c0.006346 0.71255-0.4681 1.5154-1.4495 2.0202-1.3645 0.70177-2.7995 0.35928-3.3247-0.45105-0.52521-0.81033-0.14073-2.0885 1.2238-2.7903 0.91769-0.47195 1.8672-0.47161 2.5504-0.17429v-7.0051z"/>
</g>
</g>
</svg>